{"title":"Spy.Kids.All.The.Time.In.The.World.2011.3D.DVDRip.XviD-EXViD.","uid":7017652,"size":765531391,"categoryP":"video","categoryS":"movies","magnet":"?xt=urn:btih:4885e92394e3cac6b6dc166b91c8e11ad903bb0d&amp;dn=Spy.Kids.All.The.Time.In.The.World.2011.3D.DVDRip.XviD-EXViD.&amp;tr=udp%3A%2F%2Ftracker.openbittorrent.com%3A80&amp;tr=udp%3A%2F%2Fopen.demonii.com%3A1337&amp;tr=udp%3A%2F%2Ftracker.coppersurfer.tk%3A6969&amp;tr=udp%3A%2F%2Fexodus.desync.com%3A6969","seeders":0,"leechers":1,"uploader":"moviesp2p","files":56,"time":1328718943,"description":"\t\nEXVID\n\nFilled the Archives\n\nWith:\n\nE240\n\nSP              (C) 2009\n\nSpy.Kids.All.The.Time.In.The.World.2011.3D.DVDRip.XviD-EXViD\n\nEXViD aims to iNTERNAL those releases which have been lost in the archives\nEXViD aims to PRE non-internal releases which have poor sources and are likely skipped by others\n &lt;a href=&quot;\nhttp://www.imdb.com/title/tt1517489&quot; rel=&quot;nofollow&quot; target=&quot;_NEW&quot;&gt;\nhttp://www.imdb.com/title/tt1517489&lt;/a&gt;\nSubtitles: NL\nDate: 2012.02\n\nDirector: Robert Rodriguez\n\nGenres: Action  Adventure  Comedy  Family  Sci-Fi\n\nPlot\nA retired spy is called back into action, and to bond with her new step-children, she invites\nthem along for the adventure to stop the evil Timekeeper from taking over the world\n\nCast\nJessica Alba  ... Marissa Wilson\nJoel McHale  ... Wilbur Wilson\nRowan Blanchard  ... Rebecca Wilson\nMason Cook  ... Cecil Wilson\nJeremy Piven  ... Danger D'Amo / Tick Tock / Time Keeper\nAlexa Vega  ... Carmen Cortez\nDaryl Sabara  ... Juni Cortez\nDanny Trejo  ... Uncle Machete\nBelle Solorzano  ... Spy Baby\nGenny Solorzano  ... Spy Baby\nRicky Gervais  ... Argonaut (voice)\nElmo  ... Argonaut\nJett Good  ... Young Danger\nChuck Cureau  ... News Anchor\nAlbert Im  ... Head Scientist\n\nStats\nFormat                          : AVI\nFormat/Info                      : Audio Video Interleave\nFile size                        : 701 MiB\nDuration                        : 1h 24mn\nOverall bit rate                : 1 164 Kbps\nWriting application              : VirtualDubMod 1.5.10.2 (build 2540/release\nWriting library                  : VirtualDubMod build 2540/release\n\nVideo\nID                              : 0\nFormat                          : MPEG-4 Visual\nFormat profile                  : Advanced SimpleL5\nFormat settings, BVOP            : Yes\nFormat settings, QPel            : No\nFormat settings, GMC            : No warppoints\nFormat settings, Matrix          : Default (H.263\nMuxing mode                      : Packed bitstream\nCodec ID                        : XVID\nCodec ID/Hint                    : XviD\nDuration                        : 1h 24mn\nBit rate                        : 1 003 Kbps\nWidth                            : 624 pixels\nHeight                          : 352 pixels\nDisplay aspect ratio            : 16:9\nFrame rate                      : 25.000 fps\nColor space                      : YUV\nChroma subsampling              : 4:2:0\nBit depth                        : 8 bits\nScan type                        : Progressive\nBits/(PixelFrame)              : 0.183\nStream size                      : 603 MiB (86\nWriting library                  : XviD 62\n\nAudio\nID                              : 1\nFormat                          : MPEG Audio\nFormat version                  : Version 1\nFormat profile                  : Layer 3\nMode                            : Joint stereo\nMode extension                  : MS Stereo\nCodec ID                        : 55\nCodec ID/Hint                    : MP3\nDuration                        : 1h 24mn\nBit rate mode                    : Variable\nBit rate                        : 154 Kbps\nChannel(s)                      : 2 channels\nSampling rate                    : 48.0 KHz\nStream size                      : 89.6 MiB (13\nAlignment                        : Aligned on interleaves\nInterleave, duration            : 24 ms (0.60 video frame\nInterleave, preload duration    : 544 ms\nWriting library                  : LAME3.98r\nEncoding settings                : -m j -V 4 -q 2 -lowpass 17.5 --abr 154\n\nRelease notes\nSpecial thanks to SPiRO for contributing to this release\n\nenjoy\n\nLooking for\n75TB Archives\nDUTCH/FLEMiSH Archives\n\nGreets: CRBS EPiSODE FiCO FLS iLS KLASSiGER LiPSYNC MADE NODLABS RUNNER SPRiNTER\n\nASCII DONE BY XXNFO 2oo9\n","torrent":{"xt":"urn:btih:4885e92394e3cac6b6dc166b91c8e11ad903bb0d","amp;dn":"Spy.Kids.All.The.Time.In.The.World.2011.3D.DVDRip.XviD-EXViD.","amp;tr":["udp%3A%2F%2Ftracker.openbittorrent.com%3A80","udp%3A%2F%2Fopen.demonii.com%3A1337","udp%3A%2F%2Ftracker.coppersurfer.tk%3A6969","udp%3A%2F%2Fexodus.desync.com%3A6969"],"infoHash":"4885e92394e3cac6b6dc166b91c8e11ad903bb0d","infoHashBuffer":{"type":"Buffer","data":[72,133,233,35,148,227,202,198,182,220,22,107,145,200,225,26,217,3,187,13]},"announce":[],"urlList":[]}}